%TF.GenerationSoftware,Altium Limited,Altium Designer,26.10.1 (5)*%
G04 Layer_Physical_Order=2*
G04 Layer_Color=16711680*
G04 Board_Origin=0|0*
%FSLAX45Y45*%
%MOMM*%
%TF.SameCoordinates,D5AE5AE6-C8E6-42D5-AD6F-B98557527B11*%
%TF.FilePolarity,Positive*%
%TF.FileFunction,Copper,L2,Bot,Signal*%
%TF.Part,Single*%
G01*
G75*
%TA.AperFunction,ComponentPad*%
G04:AMPARAMS|DCode=19|XSize=1.3mm|YSize=1.3mm|CornerRadius=0.325mm|HoleSize=0mm|Usage=FLASHONLY|Rotation=270.000|XOffset=0mm|YOffset=0mm|HoleType=Round|Shape=RoundedRectangle|*
%AMROUNDEDRECTD19*
21,1,1.30000,0.65000,0,0,270.0*
21,1,0.65000,1.30000,0,0,270.0*
1,1,0.65000,-0.32500,-0.32500*
1,1,0.65000,-0.32500,0.32500*
1,1,0.65000,0.32500,0.32500*
1,1,0.65000,0.32500,-0.32500*
%
%ADD19ROUNDEDRECTD19*%
%ADD20C,1.30000*%
G04:AMPARAMS|DCode=21|XSize=1.3mm|YSize=1.3mm|CornerRadius=0.325mm|HoleSize=0mm|Usage=FLASHONLY|Rotation=180.000|XOffset=0mm|YOffset=0mm|HoleType=Round|Shape=RoundedRectangle|*
%AMROUNDEDRECTD21*
21,1,1.30000,0.65000,0,0,180.0*
21,1,0.65000,1.30000,0,0,180.0*
1,1,0.65000,-0.32500,0.32500*
1,1,0.65000,0.32500,0.32500*
1,1,0.65000,0.32500,-0.32500*
1,1,0.65000,-0.32500,-0.32500*
%
%ADD21ROUNDEDRECTD21*%
%ADD22C,1.70000*%
%ADD23R,1.70000X1.70000*%
%ADD24C,6.50000*%
%ADD25C,1.50000*%
G04:AMPARAMS|DCode=26|XSize=1.95mm|YSize=1.95mm|CornerRadius=0.4875mm|HoleSize=0mm|Usage=FLASHONLY|Rotation=90.000|XOffset=0mm|YOffset=0mm|HoleType=Round|Shape=RoundedRectangle|*
%AMROUNDEDRECTD26*
21,1,1.95000,0.97500,0,0,90.0*
21,1,0.97500,1.95000,0,0,90.0*
1,1,0.97500,0.48750,0.48750*
1,1,0.97500,0.48750,-0.48750*
1,1,0.97500,-0.48750,-0.48750*
1,1,0.97500,-0.48750,0.48750*
%
%ADD26ROUNDEDRECTD26*%
%ADD27C,1.95000*%
G04:AMPARAMS|DCode=28|XSize=4mm|YSize=1.8mm|CornerRadius=0.45mm|HoleSize=0mm|Usage=FLASHONLY|Rotation=180.000|XOffset=0mm|YOffset=0mm|HoleType=Round|Shape=RoundedRectangle|*
%AMROUNDEDRECTD28*
21,1,4.00000,0.90000,0,0,180.0*
21,1,3.10000,1.80000,0,0,180.0*
1,1,0.90000,-1.55000,0.45000*
1,1,0.90000,1.55000,0.45000*
1,1,0.90000,1.55000,-0.45000*
1,1,0.90000,-1.55000,-0.45000*
%
%ADD28ROUNDEDRECTD28*%
G04:AMPARAMS|DCode=29|XSize=4mm|YSize=1.8mm|CornerRadius=0.45mm|HoleSize=0mm|Usage=FLASHONLY|Rotation=90.000|XOffset=0mm|YOffset=0mm|HoleType=Round|Shape=RoundedRectangle|*
%AMROUNDEDRECTD29*
21,1,4.00000,0.90000,0,0,90.0*
21,1,3.10000,1.80000,0,0,90.0*
1,1,0.90000,0.45000,1.55000*
1,1,0.90000,0.45000,-1.55000*
1,1,0.90000,-0.45000,-1.55000*
1,1,0.90000,-0.45000,1.55000*
%
%ADD29ROUNDEDRECTD29*%
%ADD30R,1.50000X1.50000*%
%ADD31R,1.05000X1.05000*%
%ADD32C,1.05000*%
%ADD33R,1.98000X1.98000*%
%ADD34C,1.98000*%
%TA.AperFunction,ViaPad*%
%ADD35C,0.60000*%
G36*
X14154610Y3445391D02*
X10170391D01*
Y8679610D01*
X14154610D01*
Y3445391D01*
D02*
G37*
%LPC*%
G36*
X13726578Y8637700D02*
X13673422D01*
X13620921Y8629384D01*
X13570367Y8612959D01*
X13523007Y8588827D01*
X13480003Y8557583D01*
X13471817Y8549396D01*
X13482312Y8538901D01*
X13461099Y8517688D01*
X13450604Y8528183D01*
X13442416Y8519997D01*
X13411172Y8476993D01*
X13387041Y8429632D01*
X13370616Y8379078D01*
X13362300Y8326577D01*
Y8273422D01*
X13370616Y8220922D01*
X13387041Y8170368D01*
X13411172Y8123007D01*
X13442416Y8080003D01*
X13450604Y8071817D01*
X13461099Y8082312D01*
X13482312Y8061098D01*
X13471817Y8050603D01*
X13480003Y8042417D01*
X13523007Y8011173D01*
X13570367Y7987041D01*
X13620921Y7970616D01*
X13673422Y7962300D01*
X13726578D01*
X13779079Y7970616D01*
X13829633Y7987041D01*
X13876993Y8011173D01*
X13919997Y8042417D01*
X13928183Y8050603D01*
X13917688Y8061098D01*
X13938902Y8082312D01*
X13949397Y8071817D01*
X13957584Y8080003D01*
X13988828Y8123007D01*
X14012959Y8170368D01*
X14029384Y8220922D01*
X14037700Y8273422D01*
Y8326577D01*
X14029384Y8379078D01*
X14012959Y8429632D01*
X13988828Y8476993D01*
X13957584Y8519997D01*
X13949397Y8528183D01*
X13938902Y8517688D01*
X13917688Y8538901D01*
X13928183Y8549396D01*
X13919997Y8557583D01*
X13876993Y8588827D01*
X13829633Y8612959D01*
X13779079Y8629384D01*
X13726578Y8637700D01*
D02*
G37*
G36*
X10576578D02*
X10523422D01*
X10470922Y8629384D01*
X10420368Y8612959D01*
X10373007Y8588827D01*
X10330003Y8557583D01*
X10321817Y8549396D01*
X10332312Y8538901D01*
X10311099Y8517688D01*
X10300603Y8528183D01*
X10292417Y8519997D01*
X10261173Y8476993D01*
X10237041Y8429632D01*
X10220616Y8379078D01*
X10212300Y8326577D01*
Y8273422D01*
X10220616Y8220922D01*
X10237041Y8170368D01*
X10261173Y8123007D01*
X10292417Y8080003D01*
X10300603Y8071817D01*
X10311099Y8082312D01*
X10332312Y8061098D01*
X10321817Y8050603D01*
X10330003Y8042417D01*
X10373007Y8011173D01*
X10420368Y7987041D01*
X10470922Y7970616D01*
X10523422Y7962300D01*
X10576578D01*
X10629078Y7970616D01*
X10679632Y7987041D01*
X10726993Y8011173D01*
X10769997Y8042417D01*
X10778183Y8050603D01*
X10767688Y8061098D01*
X10788901Y8082312D01*
X10799396Y8071817D01*
X10807583Y8080003D01*
X10838827Y8123007D01*
X10862959Y8170368D01*
X10879384Y8220922D01*
X10887700Y8273422D01*
Y8326577D01*
X10879384Y8379078D01*
X10862959Y8429632D01*
X10838827Y8476993D01*
X10807583Y8519997D01*
X10799396Y8528183D01*
X10788901Y8517688D01*
X10767688Y8538901D01*
X10778183Y8549396D01*
X10769997Y8557583D01*
X10726993Y8588827D01*
X10679632Y8612959D01*
X10629078Y8629384D01*
X10576578Y8637700D01*
D02*
G37*
G36*
X12687862Y8472700D02*
X12662138D01*
X12637289Y8466042D01*
X12616927Y8454286D01*
X12627716Y8443497D01*
X12606503Y8422284D01*
X12595714Y8433073D01*
X12583958Y8412711D01*
X12577300Y8387862D01*
Y8362138D01*
X12583958Y8337289D01*
X12595714Y8316927D01*
X12606503Y8327716D01*
X12627716Y8306503D01*
X12616927Y8295714D01*
X12637289Y8283958D01*
X12662138Y8277300D01*
X12687862D01*
X12712711Y8283958D01*
X12733073Y8295714D01*
X12722284Y8306503D01*
X12743497Y8327716D01*
X12754286Y8316927D01*
X12766042Y8337289D01*
X12772700Y8362138D01*
Y8387862D01*
X12766042Y8412711D01*
X12754286Y8433073D01*
X12743497Y8422284D01*
X12722284Y8443497D01*
X12733073Y8454286D01*
X12712711Y8466042D01*
X12687862Y8472700D01*
D02*
G37*
G36*
X12941862D02*
X12916138D01*
X12891289Y8466042D01*
X12869011Y8453179D01*
X12850821Y8434989D01*
X12837958Y8412711D01*
X12831300Y8387862D01*
Y8362138D01*
X12837958Y8337289D01*
X12850821Y8315011D01*
X12869011Y8296821D01*
X12891289Y8283958D01*
X12916138Y8277300D01*
X12941862D01*
X12966711Y8283958D01*
X12988989Y8296821D01*
X13007179Y8315011D01*
X13020042Y8337289D01*
X13026700Y8362138D01*
Y8387862D01*
X13020042Y8412711D01*
X13007179Y8434989D01*
X12988989Y8453179D01*
X12966711Y8466042D01*
X12941862Y8472700D01*
D02*
G37*
G36*
X12518700D02*
X12323300D01*
Y8277300D01*
X12518700D01*
Y8472700D01*
D02*
G37*
G36*
X11791862D02*
X11766138D01*
X11741289Y8466042D01*
X11719011Y8453179D01*
X11700821Y8434989D01*
X11687958Y8412711D01*
X11681300Y8387862D01*
Y8362138D01*
X11687958Y8337289D01*
X11700821Y8315011D01*
X11719011Y8296821D01*
X11741289Y8283958D01*
X11766138Y8277300D01*
X11791862D01*
X11816711Y8283958D01*
X11838989Y8296821D01*
X11857179Y8315011D01*
X11870042Y8337289D01*
X11876700Y8362138D01*
Y8387862D01*
X11870042Y8412711D01*
X11857179Y8434989D01*
X11838989Y8453179D01*
X11816711Y8466042D01*
X11791862Y8472700D01*
D02*
G37*
G36*
X11537862D02*
X11512138D01*
X11487289Y8466042D01*
X11465011Y8453179D01*
X11446821Y8434989D01*
X11433958Y8412711D01*
X11427300Y8387862D01*
Y8362138D01*
X11433958Y8337289D01*
X11446821Y8315011D01*
X11465011Y8296821D01*
X11487289Y8283958D01*
X11512138Y8277300D01*
X11537862D01*
X11562711Y8283958D01*
X11584989Y8296821D01*
X11603179Y8315011D01*
X11616042Y8337289D01*
X11622700Y8362138D01*
Y8387862D01*
X11616042Y8412711D01*
X11603179Y8434989D01*
X11584989Y8453179D01*
X11562711Y8466042D01*
X11537862Y8472700D01*
D02*
G37*
G36*
X11368700D02*
X11173300D01*
Y8277300D01*
X11368700D01*
Y8472700D01*
D02*
G37*
G36*
X12285584Y7740200D02*
X12268416D01*
X12251834Y7735757D01*
X12236966Y7727173D01*
X12224827Y7715034D01*
X12220833Y7708115D01*
X12206168D01*
X12202173Y7715034D01*
X12190034Y7727173D01*
X12175166Y7735757D01*
X12158584Y7740200D01*
X12141416D01*
X12124834Y7735757D01*
X12109966Y7727173D01*
X12100900Y7718107D01*
X12088200Y7722453D01*
Y7740200D01*
X11957800D01*
Y7609800D01*
X12088200D01*
Y7627547D01*
X12100900Y7631893D01*
X12109966Y7622827D01*
X12124834Y7614243D01*
X12141416Y7609800D01*
X12158584D01*
X12175166Y7614243D01*
X12190034Y7622827D01*
X12202173Y7634966D01*
X12206168Y7641885D01*
X12220833D01*
X12224827Y7634966D01*
X12236966Y7622827D01*
X12251834Y7614243D01*
X12268416Y7609800D01*
X12285584D01*
X12302166Y7614243D01*
X12317034Y7622827D01*
X12329173Y7634966D01*
X12337757Y7649834D01*
X12342200Y7666416D01*
Y7683584D01*
X12337757Y7700166D01*
X12329173Y7715034D01*
X12317034Y7727173D01*
X12302166Y7735757D01*
X12285584Y7740200D01*
D02*
G37*
G36*
X12536546Y7462700D02*
X12513454D01*
X12491149Y7456723D01*
X12471151Y7445177D01*
X12454823Y7428849D01*
X12443277Y7408851D01*
X12437300Y7386546D01*
Y7363454D01*
X12443277Y7341149D01*
X12454823Y7321151D01*
X12471151Y7304823D01*
X12491149Y7293277D01*
X12513454Y7287300D01*
X12536546D01*
X12558851Y7293277D01*
X12578849Y7304823D01*
X12595177Y7321151D01*
X12606723Y7341149D01*
X12612700Y7363454D01*
Y7386546D01*
X12606723Y7408851D01*
X12595177Y7428849D01*
X12578849Y7445177D01*
X12558851Y7456723D01*
X12536546Y7462700D01*
D02*
G37*
G36*
X12036546D02*
X12013454D01*
X11991149Y7456723D01*
X11971151Y7445177D01*
X11954823Y7428849D01*
X11943277Y7408851D01*
X11937300Y7386546D01*
Y7363454D01*
X11943277Y7341149D01*
X11954823Y7321151D01*
X11971151Y7304823D01*
X11991149Y7293277D01*
X12013454Y7287300D01*
X12036546D01*
X12058851Y7293277D01*
X12078849Y7304823D01*
X12095177Y7321151D01*
X12106723Y7341149D01*
X12112700Y7363454D01*
Y7386546D01*
X12106723Y7408851D01*
X12095177Y7428849D01*
X12078849Y7445177D01*
X12058851Y7456723D01*
X12036546Y7462700D01*
D02*
G37*
G36*
X11610229Y7402700D02*
X11589771D01*
X11570009Y7397405D01*
X11552291Y7387175D01*
X11537825Y7372709D01*
X11527595Y7354991D01*
X11522300Y7335229D01*
Y7314771D01*
X11527595Y7295009D01*
X11537825Y7277291D01*
X11552291Y7262825D01*
X11570009Y7252595D01*
X11589771Y7247300D01*
X11610229D01*
X11629991Y7252595D01*
X11647709Y7262825D01*
X11662175Y7277291D01*
X11672405Y7295009D01*
X11677700Y7314771D01*
Y7335229D01*
X11672405Y7354991D01*
X11662175Y7372709D01*
X11647709Y7387175D01*
X11629991Y7397405D01*
X11610229Y7402700D01*
D02*
G37*
G36*
X12960229Y7252700D02*
X12939771D01*
X12920009Y7247405D01*
X12902290Y7237175D01*
X12887825Y7222709D01*
X12877596Y7204991D01*
X12872301Y7185229D01*
Y7164771D01*
X12877596Y7145009D01*
X12887825Y7127291D01*
X12902290Y7112824D01*
X12920009Y7102595D01*
X12939771Y7097300D01*
X12960229D01*
X12979991Y7102595D01*
X12997710Y7112824D01*
X13012175Y7127291D01*
X13022404Y7145009D01*
X13027699Y7164771D01*
Y7185229D01*
X13022404Y7204991D01*
X13012175Y7222709D01*
X12997710Y7237175D01*
X12979991Y7247405D01*
X12960229Y7252700D01*
D02*
G37*
G36*
X11632500Y7203585D02*
X11567500D01*
X11549864Y7200077D01*
X11534913Y7190087D01*
X11524923Y7175136D01*
X11521415Y7157500D01*
Y7092500D01*
X11524923Y7074864D01*
X11534913Y7059913D01*
X11549864Y7049923D01*
X11567500Y7046415D01*
X11632500D01*
X11650136Y7049923D01*
X11665087Y7059913D01*
X11675077Y7074864D01*
X11678585Y7092500D01*
Y7157500D01*
X11675077Y7175136D01*
X11665087Y7190087D01*
X11650136Y7200077D01*
X11632500Y7203585D01*
D02*
G37*
G36*
X12982500Y7053585D02*
X12917500D01*
X12899864Y7050077D01*
X12884914Y7040087D01*
X12874924Y7025136D01*
X12871416Y7007500D01*
Y6942500D01*
X12874924Y6924864D01*
X12884914Y6909913D01*
X12899864Y6899922D01*
X12917500Y6896414D01*
X12982500D01*
X13000136Y6899922D01*
X13015086Y6909913D01*
X13025076Y6924864D01*
X13028584Y6942500D01*
Y7007500D01*
X13025076Y7025136D01*
X13015086Y7040087D01*
X13000136Y7050077D01*
X12982500Y7053585D01*
D02*
G37*
G36*
X12286546Y6962700D02*
X12263454D01*
X12241149Y6956723D01*
X12221151Y6945177D01*
X12204823Y6928849D01*
X12193277Y6908851D01*
X12187300Y6886546D01*
Y6863454D01*
X12193277Y6841149D01*
X12204823Y6821151D01*
X12221151Y6804823D01*
X12241149Y6793277D01*
X12263454Y6787300D01*
X12286546D01*
X12308851Y6793277D01*
X12328849Y6804823D01*
X12345177Y6821151D01*
X12356723Y6841149D01*
X12362700Y6863454D01*
Y6886546D01*
X12356723Y6908851D01*
X12345177Y6928849D01*
X12328849Y6945177D01*
X12308851Y6956723D01*
X12286546Y6962700D01*
D02*
G37*
G36*
X12542546Y6568700D02*
X12519454D01*
X12497149Y6562723D01*
X12477151Y6551177D01*
X12460823Y6534849D01*
X12449277Y6514851D01*
X12443300Y6492546D01*
Y6469454D01*
X12449277Y6447149D01*
X12460823Y6427151D01*
X12477151Y6410823D01*
X12497149Y6399277D01*
X12519454Y6393300D01*
X12542546D01*
X12564851Y6399277D01*
X12584849Y6410823D01*
X12601177Y6427151D01*
X12612723Y6447149D01*
X12618700Y6469454D01*
Y6492546D01*
X12612723Y6514851D01*
X12601177Y6534849D01*
X12584849Y6551177D01*
X12564851Y6562723D01*
X12542546Y6568700D01*
D02*
G37*
G36*
X12288546D02*
X12265454D01*
X12243149Y6562723D01*
X12223151Y6551177D01*
X12206823Y6534849D01*
X12195277Y6514851D01*
X12189300Y6492546D01*
Y6469454D01*
X12195277Y6447149D01*
X12206823Y6427151D01*
X12223151Y6410823D01*
X12243149Y6399277D01*
X12265454Y6393300D01*
X12288546D01*
X12310851Y6399277D01*
X12330849Y6410823D01*
X12347177Y6427151D01*
X12358723Y6447149D01*
X12364700Y6469454D01*
Y6492546D01*
X12358723Y6514851D01*
X12347177Y6534849D01*
X12330849Y6551177D01*
X12310851Y6562723D01*
X12288546Y6568700D01*
D02*
G37*
G36*
X12034546D02*
X12011454D01*
X11989149Y6562723D01*
X11969151Y6551177D01*
X11952823Y6534849D01*
X11941277Y6514851D01*
X11935300Y6492546D01*
Y6469454D01*
X11941277Y6447149D01*
X11952823Y6427151D01*
X11969151Y6410823D01*
X11989149Y6399277D01*
X12011454Y6393300D01*
X12034546D01*
X12056851Y6399277D01*
X12076849Y6410823D01*
X12093177Y6427151D01*
X12104723Y6447149D01*
X12110700Y6469454D01*
Y6492546D01*
X12104723Y6514851D01*
X12093177Y6534849D01*
X12076849Y6551177D01*
X12056851Y6562723D01*
X12034546Y6568700D01*
D02*
G37*
G36*
X11780546D02*
X11757454D01*
X11735149Y6562723D01*
X11715151Y6551177D01*
X11698823Y6534849D01*
X11687277Y6514851D01*
X11681300Y6492546D01*
Y6469454D01*
X11687277Y6447149D01*
X11698823Y6427151D01*
X11715151Y6410823D01*
X11735149Y6399277D01*
X11757454Y6393300D01*
X11780546D01*
X11802851Y6399277D01*
X11822849Y6410823D01*
X11839177Y6427151D01*
X11850723Y6447149D01*
X11856700Y6469454D01*
Y6492546D01*
X11850723Y6514851D01*
X11839177Y6534849D01*
X11822849Y6551177D01*
X11802851Y6562723D01*
X11780546Y6568700D01*
D02*
G37*
G36*
X13714510Y6560175D02*
X13685493D01*
X13657465Y6552665D01*
X13632336Y6538157D01*
X13611819Y6517639D01*
X13597311Y6492511D01*
X13589801Y6464483D01*
Y6435467D01*
X13597311Y6407440D01*
X13611819Y6382311D01*
X13632336Y6361793D01*
X13657465Y6347285D01*
X13685493Y6339775D01*
X13714510D01*
X13742535Y6347285D01*
X13767665Y6361793D01*
X13788184Y6382311D01*
X13802692Y6407440D01*
X13810201Y6435467D01*
Y6464483D01*
X13802692Y6492511D01*
X13788184Y6517639D01*
X13767665Y6538157D01*
X13742535Y6552665D01*
X13714510Y6560175D01*
D02*
G37*
G36*
X13748750Y6061380D02*
X13715001D01*
Y6045675D01*
X13685001D01*
Y6061380D01*
X13651251D01*
X13627274Y6056611D01*
X13619664Y6051526D01*
X13630328Y6040862D01*
X13609116Y6019649D01*
X13598451Y6030313D01*
X13593365Y6022703D01*
X13588597Y5998726D01*
Y5964976D01*
X13604301D01*
Y5934976D01*
X13588597D01*
Y5901226D01*
X13593365Y5877250D01*
X13598451Y5869640D01*
X13609116Y5880304D01*
X13630328Y5859090D01*
X13619664Y5848426D01*
X13627274Y5843342D01*
X13651251Y5838572D01*
X13685001D01*
Y5854277D01*
X13715001D01*
Y5838572D01*
X13748750D01*
X13772726Y5843342D01*
X13780338Y5848426D01*
X13769673Y5859090D01*
X13790887Y5880304D01*
X13801550Y5869640D01*
X13806635Y5877250D01*
X13811404Y5901226D01*
Y5934976D01*
X13795700D01*
Y5964976D01*
X13811404D01*
Y5998726D01*
X13806635Y6022703D01*
X13801550Y6030313D01*
X13790887Y6019649D01*
X13769673Y6040862D01*
X13780338Y6051526D01*
X13772726Y6056611D01*
X13748750Y6061380D01*
D02*
G37*
G36*
X12542546Y5806700D02*
X12519454D01*
X12497149Y5800723D01*
X12480248Y5790965D01*
X12490915Y5780298D01*
X12469702Y5759085D01*
X12459035Y5769752D01*
X12449277Y5752851D01*
X12443300Y5730546D01*
Y5707454D01*
X12449277Y5685149D01*
X12459035Y5668248D01*
X12469702Y5678915D01*
X12490915Y5657702D01*
X12480248Y5647035D01*
X12497149Y5637277D01*
X12519454Y5631300D01*
X12542546D01*
X12564851Y5637277D01*
X12581752Y5647035D01*
X12571085Y5657702D01*
X12592298Y5678915D01*
X12602965Y5668248D01*
X12612723Y5685149D01*
X12618700Y5707454D01*
Y5730546D01*
X12612723Y5752851D01*
X12602965Y5769752D01*
X12592298Y5759085D01*
X12571085Y5780298D01*
X12581752Y5790965D01*
X12564851Y5800723D01*
X12542546Y5806700D01*
D02*
G37*
G36*
X12288546D02*
X12265454D01*
X12243149Y5800723D01*
X12223151Y5789177D01*
X12206823Y5772849D01*
X12195277Y5752851D01*
X12189300Y5730546D01*
Y5707454D01*
X12195277Y5685149D01*
X12206823Y5665151D01*
X12223151Y5648823D01*
X12243149Y5637277D01*
X12265454Y5631300D01*
X12288546D01*
X12310851Y5637277D01*
X12330849Y5648823D01*
X12347177Y5665151D01*
X12358723Y5685149D01*
X12364700Y5707454D01*
Y5730546D01*
X12358723Y5752851D01*
X12347177Y5772849D01*
X12330849Y5789177D01*
X12310851Y5800723D01*
X12288546Y5806700D01*
D02*
G37*
G36*
X12034546D02*
X12011454D01*
X11989149Y5800723D01*
X11969151Y5789177D01*
X11952823Y5772849D01*
X11941277Y5752851D01*
X11935300Y5730546D01*
Y5707454D01*
X11941277Y5685149D01*
X11952823Y5665151D01*
X11969151Y5648823D01*
X11989149Y5637277D01*
X12011454Y5631300D01*
X12034546D01*
X12056851Y5637277D01*
X12076849Y5648823D01*
X12093177Y5665151D01*
X12104723Y5685149D01*
X12110700Y5707454D01*
Y5730546D01*
X12104723Y5752851D01*
X12093177Y5772849D01*
X12076849Y5789177D01*
X12056851Y5800723D01*
X12034546Y5806700D01*
D02*
G37*
G36*
X11856700D02*
X11681300D01*
Y5631300D01*
X11856700D01*
Y5806700D01*
D02*
G37*
G36*
X12835229Y5402700D02*
X12814771D01*
X12795009Y5397405D01*
X12781568Y5389645D01*
X12792155Y5379058D01*
X12770942Y5357845D01*
X12760355Y5368432D01*
X12752595Y5354991D01*
X12747300Y5335229D01*
Y5314771D01*
X12752595Y5295009D01*
X12760355Y5281568D01*
X12770942Y5292155D01*
X12792155Y5270942D01*
X12781568Y5260355D01*
X12795009Y5252595D01*
X12814771Y5247300D01*
X12835229D01*
X12854991Y5252595D01*
X12868431Y5260355D01*
X12857845Y5270942D01*
X12879057Y5292155D01*
X12889645Y5281568D01*
X12897404Y5295009D01*
X12902699Y5314771D01*
Y5335229D01*
X12897404Y5354991D01*
X12889645Y5368432D01*
X12879057Y5357845D01*
X12857845Y5379058D01*
X12868431Y5389645D01*
X12854991Y5397405D01*
X12835229Y5402700D01*
D02*
G37*
G36*
X10825000Y5338830D02*
X10795000D01*
Y5323199D01*
X10765000D01*
Y5338830D01*
X10735000D01*
X10712487Y5334352D01*
X10706117Y5330096D01*
X10716876Y5319337D01*
X10695663Y5298124D01*
X10684904Y5308883D01*
X10680648Y5302513D01*
X10676170Y5280000D01*
Y5140000D01*
X10691801D01*
Y5110000D01*
X10676170D01*
Y4970000D01*
X10680648Y4947487D01*
X10684904Y4941117D01*
X10695663Y4951876D01*
X10716876Y4930663D01*
X10706117Y4919904D01*
X10712487Y4915648D01*
X10735000Y4911170D01*
X10765000D01*
Y4926801D01*
X10795000D01*
Y4911170D01*
X10825000D01*
X10847513Y4915648D01*
X10853883Y4919904D01*
X10843123Y4930663D01*
X10864336Y4951876D01*
X10875096Y4941117D01*
X10879352Y4947487D01*
X10883830Y4970000D01*
Y5110000D01*
X10868198D01*
Y5140000D01*
X10883830D01*
Y5280000D01*
X10879352Y5302513D01*
X10875096Y5308883D01*
X10864336Y5298124D01*
X10843123Y5319337D01*
X10853883Y5330096D01*
X10847513Y5334352D01*
X10825000Y5338830D01*
D02*
G37*
G36*
X12657500Y5403585D02*
X12592500D01*
X12574864Y5400077D01*
X12559912Y5390087D01*
X12549922Y5375136D01*
X12546414Y5357500D01*
Y5292500D01*
X12549922Y5274864D01*
X12559912Y5259913D01*
X12574864Y5249923D01*
X12592500Y5246415D01*
X12657500D01*
X12675136Y5249923D01*
X12690087Y5259913D01*
X12700077Y5274864D01*
X12703585Y5292500D01*
Y5357500D01*
X12700077Y5375136D01*
X12690087Y5390087D01*
X12675136Y5400077D01*
X12657500Y5403585D01*
D02*
G37*
G36*
X13714510Y5285175D02*
X13685493D01*
X13657465Y5277665D01*
X13632777Y5263412D01*
X13643755Y5252434D01*
X13622542Y5231221D01*
X13611565Y5242199D01*
X13597311Y5217511D01*
X13589801Y5189483D01*
Y5160467D01*
X13597311Y5132440D01*
X13611565Y5107752D01*
X13622542Y5118730D01*
X13643755Y5097517D01*
X13632777Y5086539D01*
X13657465Y5072285D01*
X13685493Y5064775D01*
X13714510D01*
X13742535Y5072285D01*
X13767224Y5086539D01*
X13756245Y5097517D01*
X13777460Y5118730D01*
X13788437Y5107752D01*
X13802692Y5132440D01*
X13810201Y5160467D01*
Y5189483D01*
X13802692Y5217511D01*
X13788437Y5242199D01*
X13777460Y5231221D01*
X13756245Y5252434D01*
X13767224Y5263412D01*
X13742535Y5277665D01*
X13714510Y5285175D01*
D02*
G37*
G36*
X11405000Y5338830D02*
X11315000D01*
X11292487Y5334352D01*
X11273401Y5321599D01*
X11260648Y5302513D01*
X11256170Y5280000D01*
Y4970000D01*
X11260648Y4947487D01*
X11273401Y4928401D01*
X11292487Y4915648D01*
X11315000Y4911170D01*
X11405000D01*
X11427513Y4915648D01*
X11446599Y4928401D01*
X11459352Y4947487D01*
X11463830Y4970000D01*
Y5280000D01*
X11459352Y5302513D01*
X11446599Y5321599D01*
X11427513Y5334352D01*
X11405000Y5338830D01*
D02*
G37*
G36*
X12132500Y4928586D02*
X12067500D01*
X12049864Y4925078D01*
X12034913Y4915087D01*
X12024923Y4900136D01*
X12021415Y4882500D01*
Y4817500D01*
X12024923Y4799864D01*
X12034913Y4784913D01*
X12049864Y4774923D01*
X12067500Y4771415D01*
X12132500D01*
X12150136Y4774923D01*
X12165087Y4784913D01*
X12175077Y4799864D01*
X12178585Y4817500D01*
Y4882500D01*
X12175077Y4900136D01*
X12165087Y4915087D01*
X12150136Y4925078D01*
X12132500Y4928586D01*
D02*
G37*
G36*
X12110229Y4727700D02*
X12089771D01*
X12070009Y4722405D01*
X12052291Y4712175D01*
X12037825Y4697709D01*
X12027595Y4679991D01*
X12022300Y4660229D01*
Y4639771D01*
X12027595Y4620009D01*
X12037825Y4602291D01*
X12052291Y4587825D01*
X12070009Y4577595D01*
X12089771Y4572300D01*
X12110229D01*
X12129991Y4577595D01*
X12147709Y4587825D01*
X12162175Y4602291D01*
X12172405Y4620009D01*
X12177700Y4639771D01*
Y4660229D01*
X12172405Y4679991D01*
X12162175Y4697709D01*
X12147709Y4712175D01*
X12129991Y4722405D01*
X12110229Y4727700D01*
D02*
G37*
G36*
X13748750Y4786380D02*
X13651251D01*
X13627274Y4781611D01*
X13606947Y4768029D01*
X13593365Y4747703D01*
X13588597Y4723726D01*
Y4626226D01*
X13593365Y4602250D01*
X13606947Y4581923D01*
X13627274Y4568342D01*
X13651251Y4563572D01*
X13748750D01*
X13772726Y4568342D01*
X13793054Y4581923D01*
X13806635Y4602250D01*
X13811404Y4626226D01*
Y4723726D01*
X13806635Y4747703D01*
X13793054Y4768029D01*
X13772726Y4781611D01*
X13748750Y4786380D01*
D02*
G37*
G36*
X11215000Y4748830D02*
X10905000D01*
X10882486Y4744352D01*
X10863400Y4731599D01*
X10850648Y4712513D01*
X10846170Y4690000D01*
Y4600000D01*
X10850648Y4577487D01*
X10863400Y4558401D01*
X10882486Y4545648D01*
X10905000Y4541170D01*
X11215000D01*
X11237513Y4545648D01*
X11256599Y4558401D01*
X11269352Y4577487D01*
X11273830Y4600000D01*
Y4690000D01*
X11269352Y4712513D01*
X11256599Y4731599D01*
X11237513Y4744352D01*
X11215000Y4748830D01*
D02*
G37*
G36*
X13726578Y4187700D02*
X13673422D01*
X13620921Y4179384D01*
X13570367Y4162959D01*
X13523007Y4138827D01*
X13480003Y4107583D01*
X13471817Y4099396D01*
X13482312Y4088901D01*
X13461099Y4067688D01*
X13450604Y4078183D01*
X13442416Y4069997D01*
X13411172Y4026993D01*
X13387041Y3979632D01*
X13370616Y3929078D01*
X13362300Y3876577D01*
Y3823422D01*
X13370616Y3770922D01*
X13387041Y3720368D01*
X13411172Y3673007D01*
X13442416Y3630003D01*
X13450604Y3621817D01*
X13461099Y3632312D01*
X13482312Y3611098D01*
X13471817Y3600603D01*
X13480003Y3592417D01*
X13523007Y3561173D01*
X13570367Y3537041D01*
X13620921Y3520616D01*
X13673422Y3512300D01*
X13726578D01*
X13779079Y3520616D01*
X13829633Y3537041D01*
X13876993Y3561173D01*
X13919997Y3592417D01*
X13928183Y3600603D01*
X13917688Y3611098D01*
X13938902Y3632312D01*
X13949397Y3621817D01*
X13957584Y3630003D01*
X13988828Y3673007D01*
X14012959Y3720368D01*
X14029384Y3770922D01*
X14037700Y3823422D01*
Y3876577D01*
X14029384Y3929078D01*
X14012959Y3979632D01*
X13988828Y4026993D01*
X13957584Y4069997D01*
X13949397Y4078183D01*
X13938902Y4067688D01*
X13917688Y4088901D01*
X13928183Y4099396D01*
X13919997Y4107583D01*
X13876993Y4138827D01*
X13829633Y4162959D01*
X13779079Y4179384D01*
X13726578Y4187700D01*
D02*
G37*
G36*
X10576578D02*
X10523422D01*
X10470922Y4179384D01*
X10420368Y4162959D01*
X10373007Y4138827D01*
X10330003Y4107583D01*
X10321817Y4099396D01*
X10332312Y4088901D01*
X10311099Y4067688D01*
X10300603Y4078183D01*
X10292417Y4069997D01*
X10261173Y4026993D01*
X10237041Y3979632D01*
X10220616Y3929078D01*
X10212300Y3876577D01*
Y3823422D01*
X10220616Y3770922D01*
X10237041Y3720368D01*
X10261173Y3673007D01*
X10292417Y3630003D01*
X10300603Y3621817D01*
X10311099Y3632312D01*
X10332312Y3611098D01*
X10321817Y3600603D01*
X10330003Y3592417D01*
X10373007Y3561173D01*
X10420368Y3537041D01*
X10470922Y3520616D01*
X10523422Y3512300D01*
X10576578D01*
X10629078Y3520616D01*
X10679632Y3537041D01*
X10726993Y3561173D01*
X10769997Y3592417D01*
X10778183Y3600603D01*
X10767688Y3611098D01*
X10788901Y3632312D01*
X10799396Y3621817D01*
X10807583Y3630003D01*
X10838827Y3673007D01*
X10862959Y3720368D01*
X10879384Y3770922D01*
X10887700Y3823422D01*
Y3876577D01*
X10879384Y3929078D01*
X10862959Y3979632D01*
X10838827Y4026993D01*
X10807583Y4069997D01*
X10799396Y4078183D01*
X10788901Y4067688D01*
X10767688Y4088901D01*
X10778183Y4099396D01*
X10769997Y4107583D01*
X10726993Y4138827D01*
X10679632Y4162959D01*
X10629078Y4179384D01*
X10576578Y4187700D01*
D02*
G37*
G36*
X11761700Y3911700D02*
X11665000D01*
Y3897199D01*
X11635000D01*
Y3911700D01*
X11538300D01*
Y3815000D01*
X11552801D01*
Y3785000D01*
X11538300D01*
Y3688300D01*
X11635000D01*
Y3702801D01*
X11665000D01*
Y3688300D01*
X11761700D01*
Y3785000D01*
X11747199D01*
Y3815000D01*
X11761700D01*
Y3911700D01*
D02*
G37*
G36*
X12664706D02*
X12635295D01*
X12606885Y3904088D01*
X12581415Y3889382D01*
X12560618Y3868586D01*
X12545912Y3843115D01*
X12538300Y3814706D01*
Y3785294D01*
X12545912Y3756885D01*
X12560618Y3731414D01*
X12581415Y3710618D01*
X12606885Y3695912D01*
X12635295Y3688300D01*
X12664706D01*
X12693115Y3695912D01*
X12718586Y3710618D01*
X12739382Y3731414D01*
X12754088Y3756885D01*
X12761700Y3785294D01*
Y3814706D01*
X12754088Y3843115D01*
X12739382Y3868586D01*
X12718586Y3889382D01*
X12693115Y3904088D01*
X12664706Y3911700D01*
D02*
G37*
G36*
X12164706D02*
X12135294D01*
X12106885Y3904088D01*
X12081414Y3889382D01*
X12060618Y3868586D01*
X12045912Y3843115D01*
X12038300Y3814706D01*
Y3785294D01*
X12045912Y3756885D01*
X12060618Y3731414D01*
X12081414Y3710618D01*
X12106885Y3695912D01*
X12135294Y3688300D01*
X12164706D01*
X12193115Y3695912D01*
X12218586Y3710618D01*
X12239382Y3731414D01*
X12254088Y3756885D01*
X12261700Y3785294D01*
Y3814706D01*
X12254088Y3843115D01*
X12239382Y3868586D01*
X12218586Y3889382D01*
X12193115Y3904088D01*
X12164706Y3911700D01*
D02*
G37*
%LPD*%
D19*
X12950000Y6975000D02*
D03*
X11600000Y7125000D02*
D03*
X12100000Y4850000D02*
D03*
D20*
X12950000Y7175000D02*
D03*
X11600000Y7325000D02*
D03*
X12100000Y4650000D02*
D03*
X12825000Y5325000D02*
D03*
D21*
X12625000D02*
D03*
D22*
X12928999Y8375000D02*
D03*
X12675000D02*
D03*
X11779000D02*
D03*
X11525000D02*
D03*
D23*
X12421000D02*
D03*
X11271000D02*
D03*
D24*
X13700000Y8300000D02*
D03*
Y3850000D02*
D03*
X10550000Y8300000D02*
D03*
Y3850000D02*
D03*
D25*
X12525000Y7375000D02*
D03*
X12025000D02*
D03*
X12275000Y6875000D02*
D03*
X12023000Y5719000D02*
D03*
X12277000D02*
D03*
X12531000D02*
D03*
X11769000Y6481000D02*
D03*
X12023000D02*
D03*
X12277000D02*
D03*
X12531000D02*
D03*
D26*
X13700002Y4674976D02*
D03*
Y5949976D02*
D03*
D27*
Y5174975D02*
D03*
Y6449975D02*
D03*
D28*
X11060000Y4645000D02*
D03*
D29*
X10780000Y5125000D02*
D03*
X11360000D02*
D03*
D30*
X11769000Y5719000D02*
D03*
D31*
X12023000Y7675000D02*
D03*
D32*
X12150000D02*
D03*
X12277000D02*
D03*
D33*
X11650000Y3800000D02*
D03*
D34*
X12150000D02*
D03*
X12650000D02*
D03*
D35*
X11766251Y6820111D02*
D03*
X11844266Y6918063D02*
D03*
X12650000Y7775000D02*
D03*
X12793204Y4835492D02*
D03*
X10300000Y6100000D02*
D03*
X10750000D02*
D03*
X10525000Y6225000D02*
D03*
Y5975000D02*
D03*
X10300000Y6875000D02*
D03*
X10550000Y7000000D02*
D03*
X10750000Y6875000D02*
D03*
X10525000Y6750000D02*
D03*
%TF.MD5,7166ec20ef86c0896d13dde1ea6fa5ca*%
M02*
