%TF.GenerationSoftware,Altium Limited,Altium Designer,26.10.1 (5)*%
G04 Layer_Color=0*
G04 Board_Origin=0|0*
%FSLAX45Y45*%
%MOMM*%
%TF.SameCoordinates,D5AE5AE6-C8E6-42D5-AD6F-B98557527B11*%
%TF.FilePolarity,Positive*%
%TF.FileFunction,Plated,1,2,PTH,Drill*%
%TF.Part,Single*%
G01*
G75*
%TA.AperFunction,ComponentDrill*%
%ADD67C,0.80000*%
%ADD68C,0.80000*%
%ADD69C,1.10000*%
%ADD70C,3.50000*%
%ADD71C,1.00000*%
%ADD72C,1.30000*%
%ADD73R,3.00000X0.80000*%
%ADD74R,0.80000X3.00000*%
%ADD75C,0.90000*%
%ADD76C,1.32000*%
%TA.AperFunction,ViaDrill,NotFilled*%
%ADD77C,0.30000*%
D67*
X12950000Y6975000D02*
D03*
Y7175000D02*
D03*
X11600000Y7125000D02*
D03*
Y7325000D02*
D03*
X12100000Y4850000D02*
D03*
Y4650000D02*
D03*
D68*
X12625000Y5325000D02*
D03*
X12825000D02*
D03*
X12023000Y7675000D02*
D03*
X12150000D02*
D03*
X12277000D02*
D03*
D69*
X12928999Y8375000D02*
D03*
X12675000D02*
D03*
X12421000D02*
D03*
X11779000D02*
D03*
X11525000D02*
D03*
X11271000D02*
D03*
D70*
X13700000Y8300000D02*
D03*
Y3850000D02*
D03*
X10550000Y8300000D02*
D03*
Y3850000D02*
D03*
D71*
X12525000Y7375000D02*
D03*
X12025000D02*
D03*
X12275000Y6875000D02*
D03*
D72*
X13700002Y4674976D02*
D03*
Y5174975D02*
D03*
Y5949976D02*
D03*
Y6449975D02*
D03*
D73*
X11060000Y4645000D02*
D03*
D74*
X10780000Y5125000D02*
D03*
X11360000D02*
D03*
D75*
X11769000Y5719000D02*
D03*
X12023000D02*
D03*
X12277000D02*
D03*
X12531000D02*
D03*
X11769000Y6481000D02*
D03*
X12023000D02*
D03*
X12277000D02*
D03*
X12531000D02*
D03*
D76*
X11650000Y3800000D02*
D03*
X12150000D02*
D03*
X12650000D02*
D03*
D77*
X11766251Y6820111D02*
D03*
X11844266Y6918063D02*
D03*
X12650000Y7775000D02*
D03*
X12793204Y4835492D02*
D03*
X10300000Y6100000D02*
D03*
X10750000D02*
D03*
X10525000Y6225000D02*
D03*
Y5975000D02*
D03*
X10300000Y6875000D02*
D03*
X10550000Y7000000D02*
D03*
X10750000Y6875000D02*
D03*
X10525000Y6750000D02*
D03*
%TF.MD5,3d671cf0c57e29ee6c101049499d65d1*%
M02*
