%TF.GenerationSoftware,Altium Limited,Altium Designer,26.10.1 (5)*%
G04 Layer_Color=32896*
G04 Board_Origin=0|0*
%FSLAX45Y45*%
%MOMM*%
%TF.SameCoordinates,D5AE5AE6-C8E6-42D5-AD6F-B98557527B11*%
%TF.FilePolarity,Positive*%
%TF.FileFunction,Legend,Bot*%
%TF.Part,Single*%
G01*
G75*
%TA.AperFunction,NonConductor*%
%ADD41C,0.15000*%
D41*
X10941677Y5191645D02*
X10925016Y5208306D01*
Y5241629D01*
X10941677Y5258290D01*
X11008322D01*
X11024984Y5241629D01*
Y5208306D01*
X11008322Y5191645D01*
X10975000D01*
Y5224968D01*
X11024984Y5158322D02*
X10925016D01*
X11024984Y5091677D01*
X10925016D01*
Y5058355D02*
X11024984D01*
Y5008371D01*
X11008322Y4991710D01*
X10941677D01*
X10925016Y5008371D01*
Y5058355D01*
X11550000Y5308274D02*
Y5241629D01*
X11516677Y5274952D02*
X11583322D01*
X11599984Y5141662D02*
Y5208307D01*
X11533339Y5141662D01*
X11516677D01*
X11500016Y5158323D01*
Y5191645D01*
X11516677Y5208307D01*
Y5108339D02*
X11500016Y5091677D01*
Y5058355D01*
X11516677Y5041694D01*
X11583322D01*
X11599984Y5058355D01*
Y5091677D01*
X11583322Y5108339D01*
X11516677D01*
X11500016Y5008371D02*
X11566661D01*
X11599984Y4975048D01*
X11566661Y4941726D01*
X11500016D01*
%TF.MD5,6a7dd0ad0e74f48febc99ed85df5c8d9*%
M02*
