%TF.GenerationSoftware,Altium Limited,Altium Designer,26.10.1 (5)*%
G04 Layer_Color=65535*
G04 Board_Origin=0|0*
%FSLAX45Y45*%
%MOMM*%
%TF.SameCoordinates,D5AE5AE6-C8E6-42D5-AD6F-B98557527B11*%
%TF.FilePolarity,Positive*%
%TF.FileFunction,Legend,Top*%
%TF.Part,Single*%
G01*
G75*
%TA.AperFunction,NonConductor*%
%ADD36C,0.20000*%
%ADD37C,0.25000*%
%ADD38C,0.60000*%
%ADD39C,0.10000*%
%ADD40C,0.12700*%
%ADD41C,0.15000*%
D36*
X13225000Y7075000D02*
G03*
X13225000Y7075000I-275000J0D01*
G01*
X11875000Y7225000D02*
G03*
X11875000Y7225000I-275000J0D01*
G01*
X12375000Y4750000D02*
G03*
X12375000Y4750000I-275000J0D01*
G01*
X13000000Y5325000D02*
G03*
X13000000Y5325000I-275000J0D01*
G01*
X13360001Y7030000D02*
G03*
X13405000Y6985000I45000J0D01*
G01*
X13995000D02*
G03*
X14039999Y7030000I-0J45000D01*
G01*
X11640000Y6036500D02*
G03*
X11640000Y6163500I0J63500D01*
G01*
X12343388Y7541485D02*
G03*
X11956634Y7541453I-193387J133515D01*
G01*
X10505000Y7215000D02*
G03*
X10460000Y7170000I0J-45000D01*
G01*
Y6580000D02*
G03*
X10505000Y6535000I45000J0D01*
G01*
Y6440000D02*
G03*
X10460000Y6395000I0J-45000D01*
G01*
Y5805000D02*
G03*
X10505000Y5760000I45000J0D01*
G01*
X12160000Y8594500D02*
X13189999D01*
X12160000Y8644500D02*
X13189999D01*
X12160000Y8154500D02*
X13189999D01*
Y8644500D01*
X12160000Y8154500D02*
Y8644500D01*
X13365041Y5425000D02*
X13390021Y5485009D01*
X13270020D02*
X13390021D01*
X13270020D02*
X13295000Y5425000D01*
X13789999Y4364992D02*
X13814980Y4425000D01*
X13885020D02*
X13910001Y4364992D01*
X13789999D02*
X13910001D01*
X13199998Y4425000D02*
X13814980D01*
X13885001D02*
X14100000D01*
Y5425000D01*
X13199998Y4425000D02*
Y5425000D01*
X13295000D01*
X13364999D02*
X14099998D01*
X11010000Y8594500D02*
X12040000D01*
X11010000Y8644500D02*
X12040000D01*
X11010000Y8154500D02*
X12040000D01*
Y8644500D01*
X11010000Y8154500D02*
Y8644500D01*
X13360001Y7030000D02*
Y7505000D01*
X13405000Y6985000D02*
X13585001D01*
X13520000Y7665000D02*
X13585001D01*
X13360001Y7505000D02*
X13520000Y7665000D01*
X14039999Y7030000D02*
Y7505000D01*
X13814999Y6985000D02*
X13995000D01*
X13814999Y7665000D02*
X13880000D01*
X14039999Y7505000D01*
X13365041Y6700000D02*
X13390021Y6760009D01*
X13270020D02*
X13390021D01*
X13270020D02*
X13295000Y6700000D01*
X13789999Y5639992D02*
X13814980Y5700000D01*
X13885020D02*
X13910001Y5639992D01*
X13789999D02*
X13910001D01*
X13199998Y5700000D02*
X13814980D01*
X13885001D02*
X14100000D01*
Y6700000D01*
X13199998Y5700000D02*
Y6700000D01*
X13295000D01*
X13364999D02*
X14099998D01*
X10000000Y5575000D02*
X11450000D01*
X10000000Y4675000D02*
Y5575000D01*
X11450000Y5355000D02*
Y5575000D01*
Y4675000D02*
Y4895000D01*
X10000000Y4675000D02*
X10830000D01*
X11290000D02*
X11450000D01*
X11640000Y5835000D02*
X12660000D01*
X11640000Y6365000D02*
X12660000D01*
X11640000Y5835000D02*
Y6036500D01*
Y6163500D02*
Y6365000D01*
X12660000Y5835000D02*
Y6365000D01*
X11956634Y7541500D02*
X12343366D01*
X12688322Y4965000D02*
X12728322D01*
X12688322Y4885000D02*
X12728322D01*
X11300000Y4365000D02*
X13000000D01*
Y3415000D02*
Y4365000D01*
X11300000Y3415000D02*
X13000000D01*
X11300000D02*
Y4365000D01*
X11837500Y2815000D02*
Y3415000D01*
Y2815000D02*
X11900000Y2765000D01*
X12400000D01*
X12462500Y2815000D01*
Y3415000D01*
X11837500Y2815000D02*
X12462500D01*
X11900000Y2665000D02*
Y2765000D01*
Y2665000D02*
X11950000Y2615000D01*
X12350000D01*
X12400000Y2665000D01*
Y2765000D01*
X11900000Y2665000D02*
X12400000D01*
X11900000Y2565000D02*
X12130000D01*
X11850000Y2515000D02*
X11900000Y2565000D01*
X11850000Y1965000D02*
Y2515000D01*
Y1965000D02*
X11900000Y1915000D01*
X12130000D01*
Y2615000D01*
X12170000D01*
Y1915000D02*
Y2615000D01*
Y1915000D02*
X12400000D01*
X12450000Y1965000D01*
Y2515000D01*
X12400000Y2565000D02*
X12450000Y2515000D01*
X12170000Y2565000D02*
X12400000D01*
X11950000D02*
Y2615000D01*
X12350000Y2565000D02*
Y2615000D01*
X11850000Y2515000D02*
X12130000D01*
X12170000D02*
X12450000D01*
X11850000Y1965000D02*
X12130000D01*
X12170000D02*
X12450000D01*
X11900000D02*
Y2515000D01*
X11950000Y1965000D02*
Y2515000D01*
X12000000Y1965000D02*
Y2515000D01*
X12050000Y1965000D02*
Y2515000D01*
X12200000Y1965000D02*
Y2515000D01*
X12100000Y1965000D02*
Y2515000D01*
X12250000Y1965000D02*
Y2515000D01*
X12300000Y1965000D02*
Y2515000D01*
X12350000Y1965000D02*
Y2515000D01*
X12400000Y1965000D02*
Y2515000D01*
X10505000Y7215000D02*
X10980000D01*
X10460000Y6990000D02*
Y7170000D01*
X11140000Y6990000D02*
Y7055000D01*
X10980000Y7215000D02*
X11140000Y7055000D01*
X10505000Y6535000D02*
X10980000D01*
X10460000Y6580000D02*
Y6760000D01*
X11140000Y6695000D02*
Y6760000D01*
X10980000Y6535000D02*
X11140000Y6695000D01*
X10505000Y6440000D02*
X10980000D01*
X10460000Y6215000D02*
Y6395000D01*
X11140000Y6215000D02*
Y6280000D01*
X10980000Y6440000D02*
X11140000Y6280000D01*
X10505000Y5760000D02*
X10980000D01*
X10460000Y5805000D02*
Y5985000D01*
X11140000Y5920000D02*
Y5985000D01*
X10980000Y5760000D02*
X11140000Y5920000D01*
X13700000Y7815016D02*
Y7914984D01*
X13650015Y7865000D02*
X13749985D01*
X11290017Y6875000D02*
X11389984D01*
X11340000Y6924984D02*
Y6825016D01*
X11290017Y6100000D02*
X11389984D01*
X11340000Y6149984D02*
Y6050016D01*
D37*
X12107500Y8375000D02*
G03*
X12107500Y8375000I-12500J0D01*
G01*
X10957500D02*
G03*
X10957500Y8375000I-12500J0D01*
G01*
X11651500Y5719000D02*
G03*
X11651500Y5719000I-12500J0D01*
G01*
X11867500Y7675000D02*
G03*
X11867500Y7675000I-12500J0D01*
G01*
D38*
X11770000Y5935000D02*
G03*
X11770000Y5935000I-30000J0D01*
G01*
D39*
X12548322Y4925000D02*
G03*
X12538322Y4925000I-5000J0D01*
G01*
D02*
G03*
X12548322Y4925000I5000J0D01*
G01*
X11250000Y3800000D02*
G03*
X11240000Y3800000I-5000J0D01*
G01*
D02*
G03*
X11250000Y3800000I5000J0D01*
G01*
D40*
X12949985Y6770000D02*
Y6703355D01*
X12983307Y6736677D02*
X12916661D01*
X11599984Y6920000D02*
Y6853355D01*
X11633306Y6886678D02*
X11566661D01*
X12100016Y5055000D02*
Y5121645D01*
X12066693Y5088323D02*
X12133338D01*
X12420000Y5325016D02*
X12353355D01*
X12386677Y5291694D02*
Y5358339D01*
D41*
X13350000Y5516678D02*
Y5583323D01*
X13291678Y6850000D02*
X13358324D01*
X13325000Y6883323D02*
Y6816678D01*
X13266678Y4275000D02*
X13333324D01*
X13300000Y4308323D02*
Y4241678D01*
X10408403Y4400016D02*
X10341758D01*
X10408403Y4466661D01*
Y4483323D01*
X10391742Y4499984D01*
X10358419D01*
X10341758Y4483323D01*
X10441726D02*
X10458387Y4499984D01*
X10491710D01*
X10508371Y4483323D01*
Y4416677D01*
X10491710Y4400016D01*
X10458387D01*
X10441726Y4416677D01*
Y4483323D01*
X10541694Y4499984D02*
Y4433339D01*
X10575016Y4400016D01*
X10608339Y4433339D01*
Y4499984D01*
X10741629D02*
Y4400016D01*
X10791613D01*
X10808274Y4416677D01*
Y4483323D01*
X10791613Y4499984D01*
X10741629D01*
X10908242Y4483323D02*
X10891581Y4499984D01*
X10858258D01*
X10841597Y4483323D01*
Y4416677D01*
X10858258Y4400016D01*
X10891581D01*
X10908242Y4416677D01*
X13025015Y5858451D02*
X13124985D01*
Y5925096D01*
Y5975081D02*
Y6008403D01*
X13108322Y6025064D01*
X13075000D01*
X13058339Y6008403D01*
Y5975081D01*
X13075000Y5958419D01*
X13108322D01*
X13124985Y5975081D01*
X13058339Y6075048D02*
Y6108371D01*
X13075000Y6125032D01*
X13124985D01*
Y6075048D01*
X13108322Y6058387D01*
X13091661Y6075048D01*
Y6125032D01*
X13025015Y6225000D02*
X13124985D01*
Y6175016D01*
X13108322Y6158355D01*
X13075000D01*
X13058339Y6175016D01*
Y6225000D01*
X13124985Y6374952D02*
Y6408274D01*
X13108322Y6424935D01*
X13075000D01*
X13058339Y6408274D01*
Y6374952D01*
X13075000Y6358290D01*
X13108322D01*
X13124985Y6374952D01*
X13058339Y6458258D02*
X13108322D01*
X13124985Y6474919D01*
Y6524903D01*
X13058339D01*
X13041676Y6574887D02*
X13058339D01*
Y6558226D01*
Y6591548D01*
Y6574887D01*
X13108322D01*
X13124985Y6591548D01*
X13025015Y4625105D02*
X13124985D01*
Y4691750D01*
Y4741734D02*
Y4775056D01*
X13108322Y4791717D01*
X13075000D01*
X13058339Y4775056D01*
Y4741734D01*
X13075000Y4725072D01*
X13108322D01*
X13124985Y4741734D01*
X13058339Y4841702D02*
Y4875024D01*
X13075000Y4891685D01*
X13124985D01*
Y4841702D01*
X13108322Y4825040D01*
X13091661Y4841702D01*
Y4891685D01*
X13025015Y4991653D02*
X13124985D01*
Y4941669D01*
X13108322Y4925008D01*
X13075000D01*
X13058339Y4941669D01*
Y4991653D01*
X13124985Y5124944D02*
Y5158266D01*
Y5141605D01*
X13058339D01*
Y5124944D01*
X13124985Y5208250D02*
X13058339D01*
Y5258234D01*
X13075000Y5274895D01*
X13124985D01*
X11383339Y7608323D02*
X11366678Y7624984D01*
X11333355D01*
X11316694Y7608323D01*
Y7541678D01*
X11333355Y7525016D01*
X11366678D01*
X11383339Y7541678D01*
X11416661Y7608323D02*
X11433323Y7624984D01*
X11466645D01*
X11483306Y7608323D01*
Y7591661D01*
X11466645Y7575000D01*
X11449984D01*
X11466645D01*
X11483306Y7558339D01*
Y7541678D01*
X11466645Y7525016D01*
X11433323D01*
X11416661Y7541678D01*
X12824985Y6466702D02*
X12725016D01*
Y6516686D01*
X12741677Y6533347D01*
X12775000D01*
X12791661Y6516686D01*
Y6466702D01*
Y6500024D02*
X12824985Y6533347D01*
Y6566670D02*
Y6599992D01*
Y6583331D01*
X12725016D01*
X12741677Y6566670D01*
X12824985Y6649976D02*
Y6683299D01*
Y6666637D01*
X12725016D01*
X12741677Y6649976D01*
X12369985Y5062536D02*
X12280015D01*
Y5107522D01*
X12295010Y5122517D01*
X12325000D01*
X12339995Y5107522D01*
Y5062536D01*
Y5092527D02*
X12369985Y5122517D01*
Y5152507D02*
Y5182498D01*
Y5167502D01*
X12280015D01*
X12295010Y5152507D01*
Y5227483D02*
X12280015Y5242478D01*
Y5272469D01*
X12295010Y5287464D01*
X12354990D01*
X12369985Y5272469D01*
Y5242478D01*
X12354990Y5227483D01*
X12295010D01*
X11708322Y6766661D02*
X11724984Y6783322D01*
Y6816645D01*
X11708322Y6833306D01*
X11641677D01*
X11625016Y6816645D01*
Y6783322D01*
X11641677Y6766661D01*
X11708322Y6733338D02*
X11724984Y6716677D01*
Y6683354D01*
X11708322Y6666693D01*
X11691661D01*
X11675000Y6683354D01*
X11658338Y6666693D01*
X11641677D01*
X11625016Y6683354D01*
Y6716677D01*
X11641677Y6733338D01*
X11658338D01*
X11675000Y6716677D01*
X11691661Y6733338D01*
X11708322D01*
X11675000Y6716677D02*
Y6683354D01*
X12408338Y4908355D02*
Y4975000D01*
X12424999D01*
X12491644Y4908355D01*
X12508306D01*
Y4975000D01*
Y5008322D02*
Y5041645D01*
Y5024984D01*
X12408338D01*
X12424999Y5008322D01*
X10941710Y4274984D02*
Y4208339D01*
X10975032Y4175016D01*
X11008355Y4208339D01*
Y4274984D01*
X11041677Y4175016D02*
Y4274984D01*
X11091661D01*
X11108322Y4258322D01*
Y4225000D01*
X11091661Y4208339D01*
X11041677D01*
X11075000D02*
X11108322Y4175016D01*
X11208290D02*
X11141645D01*
X11208290Y4241661D01*
Y4258322D01*
X11191629Y4274984D01*
X11158307D01*
X11141645Y4258322D01*
X12333371Y6774984D02*
Y6708339D01*
X12366694Y6675016D01*
X12400016Y6708339D01*
Y6774984D01*
X12433339Y6675016D02*
Y6774984D01*
X12483323D01*
X12499984Y6758323D01*
Y6725000D01*
X12483323Y6708339D01*
X12433339D01*
X12466661D02*
X12499984Y6675016D01*
X12533307D02*
X12566629D01*
X12549968D01*
Y6774984D01*
X12533307Y6758323D01*
X11433355Y6399984D02*
Y6316677D01*
X11450016Y6300016D01*
X11483339D01*
X11500000Y6316677D01*
Y6399984D01*
X11533323Y6300016D02*
X11566645D01*
X11549984D01*
Y6399984D01*
X11533323Y6383323D01*
X12516694Y7625016D02*
Y7724984D01*
X12566677D01*
X12583339Y7708322D01*
Y7675000D01*
X12566677Y7658339D01*
X12516694D01*
X12550016D02*
X12583339Y7625016D01*
X12616661Y7641677D02*
X12633323Y7625016D01*
X12666645D01*
X12683306Y7641677D01*
Y7708322D01*
X12666645Y7724984D01*
X12633323D01*
X12616661Y7708322D01*
Y7691661D01*
X12633323Y7675000D01*
X12683306D01*
X13024985Y5941693D02*
X12925015D01*
Y5991677D01*
X12941676Y6008339D01*
X12975000D01*
X12991661Y5991677D01*
Y5941693D01*
Y5975016D02*
X13024985Y6008339D01*
X12941676Y6041661D02*
X12925015Y6058323D01*
Y6091645D01*
X12941676Y6108306D01*
X12958339D01*
X12975000Y6091645D01*
X12991661Y6108306D01*
X13008322D01*
X13024985Y6091645D01*
Y6058323D01*
X13008322Y6041661D01*
X12991661D01*
X12975000Y6058323D01*
X12958339Y6041661D01*
X12941676D01*
X12975000Y6058323D02*
Y6091645D01*
X12491694Y4475016D02*
Y4574984D01*
X12541677D01*
X12558339Y4558323D01*
Y4525000D01*
X12541677Y4508339D01*
X12491694D01*
X12525016D02*
X12558339Y4475016D01*
X12591661Y4574984D02*
X12658306D01*
Y4558323D01*
X12591661Y4491678D01*
Y4475016D01*
X12791693Y7950016D02*
Y8049984D01*
X12841676D01*
X12858339Y8033323D01*
Y8000000D01*
X12841676Y7983339D01*
X12791693D01*
X12825015D02*
X12858339Y7950016D01*
X12958305Y8049984D02*
X12924985Y8033323D01*
X12891661Y8000000D01*
Y7966677D01*
X12908324Y7950016D01*
X12941644D01*
X12958305Y7966677D01*
Y7983339D01*
X12941644Y8000000D01*
X12891661D01*
X12236507Y5117552D02*
X12146536D01*
Y5162537D01*
X12161531Y5177532D01*
X12191521D01*
X12206517Y5162537D01*
Y5117552D01*
Y5147542D02*
X12236507Y5177532D01*
X12146536Y5267503D02*
Y5207523D01*
X12191521D01*
X12176526Y5237513D01*
Y5252508D01*
X12191521Y5267503D01*
X12221512D01*
X12236507Y5252508D01*
Y5222518D01*
X12221512Y5207523D01*
X12816695Y4625016D02*
Y4724984D01*
X12866678D01*
X12883339Y4708323D01*
Y4675000D01*
X12866678Y4658339D01*
X12816695D01*
X12850015D02*
X12883339Y4625016D01*
X12966644D02*
Y4724984D01*
X12916661Y4675000D01*
X12983307D01*
X13341695Y7825016D02*
Y7924984D01*
X13391678D01*
X13408339Y7908323D01*
Y7875000D01*
X13391678Y7858339D01*
X13341695D01*
X13375015D02*
X13408339Y7825016D01*
X13441661Y7908323D02*
X13458324Y7924984D01*
X13491644D01*
X13508305Y7908323D01*
Y7891661D01*
X13491644Y7875000D01*
X13474985D01*
X13491644D01*
X13508305Y7858339D01*
Y7841677D01*
X13491644Y7825016D01*
X13458324D01*
X13441661Y7841677D01*
X12824985Y5666694D02*
X12725016D01*
Y5716678D01*
X12741677Y5733339D01*
X12775000D01*
X12791661Y5716678D01*
Y5666694D01*
Y5700016D02*
X12824985Y5733339D01*
Y5833307D02*
Y5766662D01*
X12758339Y5833307D01*
X12741677D01*
X12725016Y5816645D01*
Y5783323D01*
X12741677Y5766662D01*
X11508355Y7675016D02*
Y7774984D01*
X11558339D01*
X11575000Y7758322D01*
Y7725000D01*
X11558339Y7708338D01*
X11508355D01*
X11541677D02*
X11575000Y7675016D01*
X11608323D02*
X11641645D01*
X11624984D01*
Y7774984D01*
X11608323Y7758322D01*
X12433339Y8016677D02*
Y8083322D01*
X12416677Y8099984D01*
X12383355D01*
X12366694Y8083322D01*
Y8016677D01*
X12383355Y8000016D01*
X12416677D01*
X12400016Y8033339D02*
X12433339Y8000016D01*
X12416677D02*
X12433339Y8016677D01*
X12466661Y8083322D02*
X12483323Y8099984D01*
X12516645D01*
X12533306Y8083322D01*
Y8066661D01*
X12516645Y8050000D01*
X12499984D01*
X12516645D01*
X12533306Y8033339D01*
Y8016677D01*
X12516645Y8000016D01*
X12483323D01*
X12466661Y8016677D01*
X12083339Y7991677D02*
Y8058322D01*
X12066677Y8074984D01*
X12033355D01*
X12016694Y8058322D01*
Y7991677D01*
X12033355Y7975016D01*
X12066677D01*
X12050016Y8008339D02*
X12083339Y7975016D01*
X12066677D02*
X12083339Y7991677D01*
X12183306Y7975016D02*
X12116661D01*
X12183306Y8041661D01*
Y8058322D01*
X12166645Y8074984D01*
X12133323D01*
X12116661Y8058322D01*
X11775000Y8016677D02*
Y8083322D01*
X11758339Y8099984D01*
X11725016D01*
X11708355Y8083322D01*
Y8016677D01*
X11725016Y8000016D01*
X11758339D01*
X11741678Y8033339D02*
X11775000Y8000016D01*
X11758339D02*
X11775000Y8016677D01*
X11808323Y8000016D02*
X11841645D01*
X11824984D01*
Y8099984D01*
X11808323Y8083322D01*
X13033339Y5749984D02*
X13000015D01*
X13016678D01*
Y5666678D01*
X13000015Y5650016D01*
X12983356D01*
X12966695Y5666678D01*
X13066661Y5733323D02*
X13083324Y5749984D01*
X13116644D01*
X13133305Y5733323D01*
Y5716661D01*
X13116644Y5700000D01*
X13099985D01*
X13116644D01*
X13133305Y5683339D01*
Y5666678D01*
X13116644Y5650016D01*
X13083324D01*
X13066661Y5666678D01*
X13058339Y5574959D02*
X13025017D01*
X13041678D01*
Y5491652D01*
X13025017Y5474991D01*
X13008356D01*
X12991695Y5491652D01*
X13158307Y5474991D02*
X13091663D01*
X13158307Y5541636D01*
Y5558297D01*
X13141646Y5574959D01*
X13108324D01*
X13091663Y5558297D01*
X10250000Y5749984D02*
X10216678D01*
X10233339D01*
Y5666678D01*
X10216678Y5650016D01*
X10200016D01*
X10183355Y5666678D01*
X10283323Y5650016D02*
X10316645D01*
X10299984D01*
Y5749984D01*
X10283323Y5733323D01*
X11716677Y4533338D02*
X11700015Y4516677D01*
Y4483355D01*
X11716677Y4466693D01*
X11783322D01*
X11799983Y4483355D01*
Y4516677D01*
X11783322Y4533338D01*
X11700015Y4566661D02*
Y4633306D01*
X11716677D01*
X11783322Y4566661D01*
X11799983D01*
X12858339Y7508323D02*
X12841676Y7524984D01*
X12808356D01*
X12791693Y7508323D01*
Y7441678D01*
X12808356Y7425016D01*
X12841676D01*
X12858339Y7441678D01*
X12958305Y7524984D02*
X12924985Y7508323D01*
X12891661Y7475000D01*
Y7441678D01*
X12908324Y7425016D01*
X12941644D01*
X12958305Y7441678D01*
Y7458339D01*
X12941644Y7475000D01*
X12891661D01*
X13191676Y7433339D02*
X13175015Y7416678D01*
Y7383355D01*
X13191676Y7366694D01*
X13258322D01*
X13274985Y7383355D01*
Y7416678D01*
X13258322Y7433339D01*
X13175015Y7533307D02*
Y7466662D01*
X13225000D01*
X13208339Y7499984D01*
Y7516646D01*
X13225000Y7533307D01*
X13258322D01*
X13274985Y7516646D01*
Y7483323D01*
X13258322Y7466662D01*
X12891678Y4958339D02*
X12875015Y4941677D01*
Y4908355D01*
X12891678Y4891694D01*
X12958324D01*
X12974985Y4908355D01*
Y4941677D01*
X12958324Y4958339D01*
X12974985Y5041645D02*
X12875015D01*
X12925000Y4991661D01*
Y5058306D01*
X10233338Y6358323D02*
X10216677Y6374984D01*
X10183355D01*
X10166693Y6358323D01*
Y6291678D01*
X10183355Y6275016D01*
X10216677D01*
X10233338Y6291678D01*
X10333306Y6275016D02*
X10266661D01*
X10333306Y6341661D01*
Y6358323D01*
X10316645Y6374984D01*
X10283323D01*
X10266661Y6358323D01*
X10250000Y7108323D02*
X10233339Y7124984D01*
X10200016D01*
X10183355Y7108323D01*
Y7041678D01*
X10200016Y7025016D01*
X10233339D01*
X10250000Y7041678D01*
X10283323Y7025016D02*
X10316645D01*
X10299984D01*
Y7124984D01*
X10283323Y7108323D01*
%TF.MD5,a7f28acf73f35bc7ae5a8134f766827f*%
M02*
