%TF.GenerationSoftware,Altium Limited,Altium Designer,26.10.1 (5)*%
G04 Layer_Color=8388736*
G04 Board_Origin=0|0*
%FSLAX45Y45*%
%MOMM*%
%TF.SameCoordinates,D5AE5AE6-C8E6-42D5-AD6F-B98557527B11*%
%TF.FilePolarity,Negative*%
%TF.FileFunction,Soldermask,Top*%
%TF.Part,Single*%
G01*
G75*
%TA.AperFunction,SMDPad,CuDef*%
%ADD42R,0.80000X1.10000*%
%ADD43R,1.10000X0.80000*%
%ADD44R,1.75000X3.65000*%
%ADD45R,0.75000X0.95000*%
%ADD46R,0.95000X0.95000*%
%ADD47R,3.65000X1.75000*%
%TA.AperFunction,ComponentPad*%
G04:AMPARAMS|DCode=48|XSize=1.45mm|YSize=1.45mm|CornerRadius=0.4mm|HoleSize=0mm|Usage=FLASHONLY|Rotation=270.000|XOffset=0mm|YOffset=0mm|HoleType=Round|Shape=RoundedRectangle|*
%AMROUNDEDRECTD48*
21,1,1.45000,0.65000,0,0,270.0*
21,1,0.65000,1.45000,0,0,270.0*
1,1,0.80000,-0.32500,-0.32500*
1,1,0.80000,-0.32500,0.32500*
1,1,0.80000,0.32500,0.32500*
1,1,0.80000,0.32500,-0.32500*
%
%ADD48ROUNDEDRECTD48*%
%ADD49C,1.45000*%
G04:AMPARAMS|DCode=50|XSize=1.45mm|YSize=1.45mm|CornerRadius=0.4mm|HoleSize=0mm|Usage=FLASHONLY|Rotation=180.000|XOffset=0mm|YOffset=0mm|HoleType=Round|Shape=RoundedRectangle|*
%AMROUNDEDRECTD50*
21,1,1.45000,0.65000,0,0,180.0*
21,1,0.65000,1.45000,0,0,180.0*
1,1,0.80000,-0.32500,0.32500*
1,1,0.80000,0.32500,0.32500*
1,1,0.80000,0.32500,-0.32500*
1,1,0.80000,-0.32500,-0.32500*
%
%ADD50ROUNDEDRECTD50*%
%ADD51C,1.85000*%
%ADD52R,1.85000X1.85000*%
%ADD53C,6.65000*%
%ADD54C,1.65000*%
G04:AMPARAMS|DCode=55|XSize=2.1mm|YSize=2.1mm|CornerRadius=0.5625mm|HoleSize=0mm|Usage=FLASHONLY|Rotation=90.000|XOffset=0mm|YOffset=0mm|HoleType=Round|Shape=RoundedRectangle|*
%AMROUNDEDRECTD55*
21,1,2.10000,0.97500,0,0,90.0*
21,1,0.97500,2.10000,0,0,90.0*
1,1,1.12500,0.48750,0.48750*
1,1,1.12500,0.48750,-0.48750*
1,1,1.12500,-0.48750,-0.48750*
1,1,1.12500,-0.48750,0.48750*
%
%ADD55ROUNDEDRECTD55*%
%ADD56C,2.10000*%
G04:AMPARAMS|DCode=57|XSize=4.15mm|YSize=1.95mm|CornerRadius=0.525mm|HoleSize=0mm|Usage=FLASHONLY|Rotation=180.000|XOffset=0mm|YOffset=0mm|HoleType=Round|Shape=RoundedRectangle|*
%AMROUNDEDRECTD57*
21,1,4.15000,0.90000,0,0,180.0*
21,1,3.10000,1.95000,0,0,180.0*
1,1,1.05000,-1.55000,0.45000*
1,1,1.05000,1.55000,0.45000*
1,1,1.05000,1.55000,-0.45000*
1,1,1.05000,-1.55000,-0.45000*
%
%ADD57ROUNDEDRECTD57*%
G04:AMPARAMS|DCode=58|XSize=4.15mm|YSize=1.95mm|CornerRadius=0.525mm|HoleSize=0mm|Usage=FLASHONLY|Rotation=90.000|XOffset=0mm|YOffset=0mm|HoleType=Round|Shape=RoundedRectangle|*
%AMROUNDEDRECTD58*
21,1,4.15000,0.90000,0,0,90.0*
21,1,3.10000,1.95000,0,0,90.0*
1,1,1.05000,0.45000,1.55000*
1,1,1.05000,0.45000,-1.55000*
1,1,1.05000,-0.45000,-1.55000*
1,1,1.05000,-0.45000,1.55000*
%
%ADD58ROUNDEDRECTD58*%
%ADD59R,1.65000X1.65000*%
%ADD60R,1.20000X1.20000*%
%ADD61C,1.20000*%
%ADD62R,2.13000X2.13000*%
%ADD63C,2.13000*%
D42*
X12825000Y4525000D02*
D03*
X12975000D02*
D03*
X12250000Y5525000D02*
D03*
X12400000D02*
D03*
X12650000Y7875000D02*
D03*
X12500000D02*
D03*
X11475000D02*
D03*
X11625000D02*
D03*
X12625000Y4675000D02*
D03*
X12475000D02*
D03*
D43*
X12775000Y6350000D02*
D03*
Y6200000D02*
D03*
X13250000Y7925000D02*
D03*
Y8075000D02*
D03*
X12775000Y5925000D02*
D03*
Y6075000D02*
D03*
X13050000Y8075000D02*
D03*
Y7925000D02*
D03*
X12950000Y6200000D02*
D03*
Y6350000D02*
D03*
X12075000Y5400000D02*
D03*
Y5550000D02*
D03*
D44*
X13700000Y7045000D02*
D03*
Y7605000D02*
D03*
D45*
X12623322Y4925000D02*
D03*
X12793322D02*
D03*
D46*
X11850000Y6675000D02*
D03*
Y6825000D02*
D03*
D47*
X10520000Y6875000D02*
D03*
X11080000D02*
D03*
X10520000Y6100000D02*
D03*
X11080000D02*
D03*
D48*
X12950000Y6975000D02*
D03*
X11600000Y7125000D02*
D03*
X12100000Y4850000D02*
D03*
D49*
X12950000Y7175000D02*
D03*
X11600000Y7325000D02*
D03*
X12100000Y4650000D02*
D03*
X12825000Y5325000D02*
D03*
D50*
X12625000D02*
D03*
D51*
X12928999Y8375000D02*
D03*
X12675000D02*
D03*
X11779000D02*
D03*
X11525000D02*
D03*
D52*
X12421000D02*
D03*
X11271000D02*
D03*
D53*
X13700000Y8300000D02*
D03*
Y3850000D02*
D03*
X10550000Y8300000D02*
D03*
Y3850000D02*
D03*
D54*
X12525000Y7375000D02*
D03*
X12025000D02*
D03*
X12275000Y6875000D02*
D03*
X12023000Y5719000D02*
D03*
X12277000D02*
D03*
X12531000D02*
D03*
X11769000Y6481000D02*
D03*
X12023000D02*
D03*
X12277000D02*
D03*
X12531000D02*
D03*
D55*
X13700002Y4674976D02*
D03*
Y5949976D02*
D03*
D56*
Y5174975D02*
D03*
Y6449975D02*
D03*
D57*
X11060000Y4645000D02*
D03*
D58*
X10780000Y5125000D02*
D03*
X11360000D02*
D03*
D59*
X11769000Y5719000D02*
D03*
D60*
X12023000Y7675000D02*
D03*
D61*
X12150000D02*
D03*
X12277000D02*
D03*
D62*
X11650000Y3800000D02*
D03*
D63*
X12150000D02*
D03*
X12650000D02*
D03*
%TF.MD5,bce359650bbceaef32480001d7a7ff0a*%
M02*
